<mxfile host="app.diagrams.net" modified="2021-12-12T17:06:32.214Z" agent="5.0 (X11)" etag="W0IzLsWLjl2XfPUKSWrA" version="15.9.1" type="github" pages="3">
  <diagram id="iwfOwzoyt1GXJqlSzmHL" name="tLampControl">
    <mxGraphModel dx="1781" dy="527" grid="1" gridSize="10" guides="1" tooltips="1" connect="1" arrows="1" fold="1" page="1" pageScale="1" pageWidth="850" pageHeight="1100" background="none" math="0" shadow="0">
      <root>
        <mxCell id="0" />
        <mxCell id="1" parent="0" />
        <mxCell id="tLi0-nHP5tQ4LfW5cNPT-10" style="edgeStyle=orthogonalEdgeStyle;rounded=1;sketch=0;orthogonalLoop=1;jettySize=auto;html=1;exitX=0.5;exitY=1;exitDx=0;exitDy=0;entryX=0.5;entryY=0;entryDx=0;entryDy=0;fontColor=#143642;strokeColor=#A8201A;fillColor=#FAE5C7;" edge="1" parent="1" source="tLi0-nHP5tQ4LfW5cNPT-1" target="tLi0-nHP5tQ4LfW5cNPT-2">
          <mxGeometry relative="1" as="geometry" />
        </mxCell>
        <mxCell id="tLi0-nHP5tQ4LfW5cNPT-1" value="tLampControl" style="ellipse;whiteSpace=wrap;html=1;fillColor=#FAE5C7;strokeColor=#0F8B8D;fontColor=#143642;fontStyle=1" vertex="1" parent="1">
          <mxGeometry x="-488" y="70" width="125.5" height="50" as="geometry" />
        </mxCell>
        <mxCell id="tLi0-nHP5tQ4LfW5cNPT-11" style="edgeStyle=orthogonalEdgeStyle;rounded=1;sketch=0;orthogonalLoop=1;jettySize=auto;html=1;exitX=0.5;exitY=1;exitDx=0;exitDy=0;entryX=0.5;entryY=0;entryDx=0;entryDy=0;fontColor=#143642;strokeColor=#A8201A;fillColor=#FAE5C7;" edge="1" parent="1" source="tLi0-nHP5tQ4LfW5cNPT-2" target="tLi0-nHP5tQ4LfW5cNPT-3">
          <mxGeometry relative="1" as="geometry" />
        </mxCell>
        <mxCell id="tLi0-nHP5tQ4LfW5cNPT-2" value="" style="ellipse;whiteSpace=wrap;html=1;aspect=fixed;rounded=0;sketch=0;fontColor=#143642;strokeColor=#0F8B8D;fillColor=#FAE5C7;" vertex="1" parent="1">
          <mxGeometry x="-435" y="160" width="20" height="20" as="geometry" />
        </mxCell>
        <mxCell id="GPnGVhb6YUrqzIFIRJax-3" style="edgeStyle=orthogonalEdgeStyle;rounded=0;sketch=0;orthogonalLoop=1;jettySize=auto;html=1;exitX=0.5;exitY=1;exitDx=0;exitDy=0;entryX=0.5;entryY=0;entryDx=0;entryDy=0;fontColor=#143642;strokeColor=#A8201A;fillColor=#FAE5C7;" edge="1" parent="1" source="tLi0-nHP5tQ4LfW5cNPT-3" target="tLi0-nHP5tQ4LfW5cNPT-4">
          <mxGeometry relative="1" as="geometry" />
        </mxCell>
        <mxCell id="tLi0-nHP5tQ4LfW5cNPT-3" value="&lt;b&gt;Lock&lt;/b&gt; &lt;i&gt;mutChangePWM&lt;/i&gt;" style="rounded=0;whiteSpace=wrap;html=1;sketch=0;fontColor=#143642;strokeColor=#0F8B8D;fillColor=#FAE5C7;" vertex="1" parent="1">
          <mxGeometry x="-500.25" y="200" width="150.25" height="40" as="geometry" />
        </mxCell>
        <mxCell id="tLi0-nHP5tQ4LfW5cNPT-13" value="condNewPWM" style="edgeStyle=orthogonalEdgeStyle;rounded=1;sketch=0;orthogonalLoop=1;jettySize=auto;html=1;fontColor=#143642;strokeColor=#A8201A;fillColor=#FAE5C7;fontStyle=2" edge="1" parent="1" source="tLi0-nHP5tQ4LfW5cNPT-4" target="tLi0-nHP5tQ4LfW5cNPT-6">
          <mxGeometry relative="1" as="geometry" />
        </mxCell>
        <mxCell id="tLi0-nHP5tQ4LfW5cNPT-4" value="&lt;b&gt;Wait&lt;/b&gt; for &lt;i&gt;condNewPWM&lt;/i&gt;" style="rounded=0;whiteSpace=wrap;html=1;sketch=0;fontColor=#143642;strokeColor=#0F8B8D;fillColor=#FAE5C7;" vertex="1" parent="1">
          <mxGeometry x="-500.5" y="260" width="150" height="40" as="geometry" />
        </mxCell>
        <mxCell id="tLi0-nHP5tQ4LfW5cNPT-16" style="edgeStyle=orthogonalEdgeStyle;rounded=1;sketch=0;orthogonalLoop=1;jettySize=auto;html=1;exitX=0.5;exitY=1;exitDx=0;exitDy=0;entryX=0.5;entryY=0;entryDx=0;entryDy=0;fontColor=#143642;strokeColor=#A8201A;fillColor=#FAE5C7;" edge="1" parent="1" source="tLi0-nHP5tQ4LfW5cNPT-6" target="tLi0-nHP5tQ4LfW5cNPT-7">
          <mxGeometry relative="1" as="geometry" />
        </mxCell>
        <mxCell id="tLi0-nHP5tQ4LfW5cNPT-6" value="&lt;b&gt;setPWM&lt;/b&gt;(&lt;i&gt;pwm_val&lt;/i&gt;)" style="shape=process;whiteSpace=wrap;html=1;backgroundOutline=1;rounded=0;sketch=0;fontColor=#143642;strokeColor=#0F8B8D;fillColor=#FAE5C7;" vertex="1" parent="1">
          <mxGeometry x="-500" y="350" width="150" height="40" as="geometry" />
        </mxCell>
        <mxCell id="tLi0-nHP5tQ4LfW5cNPT-17" value="" style="edgeStyle=orthogonalEdgeStyle;rounded=1;sketch=0;orthogonalLoop=1;jettySize=auto;html=1;fontColor=#143642;strokeColor=#A8201A;fillColor=#FAE5C7;" edge="1" parent="1" source="tLi0-nHP5tQ4LfW5cNPT-7" target="tLi0-nHP5tQ4LfW5cNPT-8">
          <mxGeometry relative="1" as="geometry" />
        </mxCell>
        <mxCell id="tLi0-nHP5tQ4LfW5cNPT-7" value="&lt;b&gt;Unlock&lt;/b&gt; &lt;i&gt;mutChangePWM&lt;/i&gt;" style="rounded=0;whiteSpace=wrap;html=1;sketch=0;fontColor=#143642;strokeColor=#0F8B8D;fillColor=#FAE5C7;" vertex="1" parent="1">
          <mxGeometry x="-500" y="410" width="150" height="40" as="geometry" />
        </mxCell>
        <mxCell id="tLi0-nHP5tQ4LfW5cNPT-9" style="edgeStyle=orthogonalEdgeStyle;rounded=1;sketch=0;orthogonalLoop=1;jettySize=auto;html=1;exitX=1;exitY=0.5;exitDx=0;exitDy=0;entryX=1;entryY=0.5;entryDx=0;entryDy=0;fontColor=#143642;strokeColor=#A8201A;fillColor=#FAE5C7;" edge="1" parent="1" source="tLi0-nHP5tQ4LfW5cNPT-8" target="tLi0-nHP5tQ4LfW5cNPT-2">
          <mxGeometry relative="1" as="geometry">
            <Array as="points">
              <mxPoint x="-310" y="510" />
              <mxPoint x="-310" y="170" />
            </Array>
          </mxGeometry>
        </mxCell>
        <mxCell id="tLi0-nHP5tQ4LfW5cNPT-22" value="No" style="edgeLabel;html=1;align=center;verticalAlign=middle;resizable=0;points=[];fontColor=#143642;" vertex="1" connectable="0" parent="tLi0-nHP5tQ4LfW5cNPT-9">
          <mxGeometry x="-0.9531" y="-2" relative="1" as="geometry">
            <mxPoint as="offset" />
          </mxGeometry>
        </mxCell>
        <mxCell id="tLi0-nHP5tQ4LfW5cNPT-18" style="edgeStyle=orthogonalEdgeStyle;rounded=1;sketch=0;orthogonalLoop=1;jettySize=auto;html=1;exitX=0;exitY=0.5;exitDx=0;exitDy=0;fontColor=#143642;strokeColor=#A8201A;fillColor=#FAE5C7;" edge="1" parent="1" source="tLi0-nHP5tQ4LfW5cNPT-8" target="tLi0-nHP5tQ4LfW5cNPT-19">
          <mxGeometry relative="1" as="geometry">
            <mxPoint x="-530" y="630" as="targetPoint" />
          </mxGeometry>
        </mxCell>
        <mxCell id="tLi0-nHP5tQ4LfW5cNPT-23" value="Yes" style="edgeLabel;html=1;align=center;verticalAlign=middle;resizable=0;points=[];fontColor=#143642;" vertex="1" connectable="0" parent="tLi0-nHP5tQ4LfW5cNPT-18">
          <mxGeometry x="-0.6344" y="-1" relative="1" as="geometry">
            <mxPoint as="offset" />
          </mxGeometry>
        </mxCell>
        <mxCell id="tLi0-nHP5tQ4LfW5cNPT-8" value="&lt;div&gt;PWM is&lt;/div&gt;&lt;div&gt;maximum ?&lt;br&gt;&lt;/div&gt;" style="rhombus;whiteSpace=wrap;html=1;rounded=0;sketch=0;fontColor=#143642;strokeColor=#0F8B8D;fillColor=#FAE5C7;" vertex="1" parent="1">
          <mxGeometry x="-468.25" y="470" width="85.5" height="80" as="geometry" />
        </mxCell>
        <mxCell id="tLi0-nHP5tQ4LfW5cNPT-20" style="edgeStyle=orthogonalEdgeStyle;rounded=1;sketch=0;orthogonalLoop=1;jettySize=auto;html=1;entryX=0;entryY=0.5;entryDx=0;entryDy=0;fontColor=#143642;strokeColor=#A8201A;fillColor=#FAE5C7;exitX=0.5;exitY=1;exitDx=0;exitDy=0;" edge="1" parent="1" source="tLi0-nHP5tQ4LfW5cNPT-19" target="tLi0-nHP5tQ4LfW5cNPT-2">
          <mxGeometry relative="1" as="geometry">
            <Array as="points">
              <mxPoint x="-535" y="620" />
              <mxPoint x="-630" y="620" />
              <mxPoint x="-630" y="170" />
            </Array>
          </mxGeometry>
        </mxCell>
        <mxCell id="tLi0-nHP5tQ4LfW5cNPT-19" value="&lt;div&gt;&lt;b&gt;setTimer&lt;/b&gt;&lt;/div&gt;&lt;div&gt;(&lt;i&gt;LAMP_ON_TIMEOUT&lt;/i&gt;)&lt;/div&gt;" style="shape=process;whiteSpace=wrap;html=1;backgroundOutline=1;rounded=0;sketch=0;fontColor=#143642;strokeColor=#0F8B8D;fillColor=#FAE5C7;" vertex="1" parent="1">
          <mxGeometry x="-620" y="550" width="170" height="40" as="geometry" />
        </mxCell>
      </root>
    </mxGraphModel>
  </diagram>
  <diagram name="tLoraSend" id="RGA5nEG9uMF0kkzzjcRO">
    <mxGraphModel dx="1781" dy="527" grid="1" gridSize="10" guides="1" tooltips="1" connect="1" arrows="1" fold="1" page="1" pageScale="1" pageWidth="850" pageHeight="1100" background="none" math="0" shadow="0">
      <root>
        <mxCell id="6ZPpjvBLr2ZM-foIgfbG-0" />
        <mxCell id="6ZPpjvBLr2ZM-foIgfbG-1" parent="6ZPpjvBLr2ZM-foIgfbG-0" />
        <mxCell id="6ZPpjvBLr2ZM-foIgfbG-2" style="edgeStyle=orthogonalEdgeStyle;curved=0;rounded=1;sketch=0;orthogonalLoop=1;jettySize=auto;html=1;exitX=0.5;exitY=1;exitDx=0;exitDy=0;entryX=0.5;entryY=0;entryDx=0;entryDy=0;fontColor=#143642;strokeColor=#A8201A;fillColor=#FAE5C7;" edge="1" parent="6ZPpjvBLr2ZM-foIgfbG-1" source="6ZPpjvBLr2ZM-foIgfbG-3" target="6ZPpjvBLr2ZM-foIgfbG-5">
          <mxGeometry relative="1" as="geometry" />
        </mxCell>
        <mxCell id="6ZPpjvBLr2ZM-foIgfbG-3" value="tLoraSend" style="ellipse;whiteSpace=wrap;html=1;fillColor=#FAE5C7;strokeColor=#0F8B8D;fontColor=#143642;fontStyle=1" vertex="1" parent="6ZPpjvBLr2ZM-foIgfbG-1">
          <mxGeometry x="-488" y="70" width="125.5" height="50" as="geometry" />
        </mxCell>
        <mxCell id="6ZPpjvBLr2ZM-foIgfbG-4" style="edgeStyle=orthogonalEdgeStyle;curved=0;rounded=1;sketch=0;orthogonalLoop=1;jettySize=auto;html=1;exitX=0.5;exitY=1;exitDx=0;exitDy=0;entryX=0.5;entryY=0;entryDx=0;entryDy=0;fontColor=#143642;strokeColor=#A8201A;fillColor=#FAE5C7;" edge="1" parent="6ZPpjvBLr2ZM-foIgfbG-1" source="6ZPpjvBLr2ZM-foIgfbG-5" target="6ZPpjvBLr2ZM-foIgfbG-7">
          <mxGeometry relative="1" as="geometry" />
        </mxCell>
        <mxCell id="6ZPpjvBLr2ZM-foIgfbG-5" value="" style="ellipse;whiteSpace=wrap;html=1;aspect=fixed;rounded=0;sketch=0;fontColor=#143642;strokeColor=#0F8B8D;fillColor=#FAE5C7;" vertex="1" parent="6ZPpjvBLr2ZM-foIgfbG-1">
          <mxGeometry x="-435" y="160" width="20" height="20" as="geometry" />
        </mxCell>
        <mxCell id="6ZPpjvBLr2ZM-foIgfbG-6" value="" style="edgeStyle=orthogonalEdgeStyle;curved=0;rounded=1;sketch=0;orthogonalLoop=1;jettySize=auto;html=1;fontColor=#143642;strokeColor=#A8201A;fillColor=#FAE5C7;" edge="1" parent="6ZPpjvBLr2ZM-foIgfbG-1" source="6ZPpjvBLr2ZM-foIgfbG-7" target="6ZPpjvBLr2ZM-foIgfbG-9">
          <mxGeometry relative="1" as="geometry" />
        </mxCell>
        <mxCell id="6ZPpjvBLr2ZM-foIgfbG-7" value="&lt;b&gt;Lock&lt;/b&gt; &lt;i&gt;mutSend&lt;/i&gt;" style="rounded=0;whiteSpace=wrap;html=1;sketch=0;fontColor=#143642;strokeColor=#0F8B8D;fillColor=#FAE5C7;" vertex="1" parent="6ZPpjvBLr2ZM-foIgfbG-1">
          <mxGeometry x="-500" y="200" width="150" height="40" as="geometry" />
        </mxCell>
        <mxCell id="6ZPpjvBLr2ZM-foIgfbG-8" value="condSend" style="edgeStyle=orthogonalEdgeStyle;curved=0;rounded=1;sketch=0;orthogonalLoop=1;jettySize=auto;html=1;fontColor=#143642;strokeColor=#A8201A;fillColor=#FAE5C7;entryX=0.5;entryY=0;entryDx=0;entryDy=0;fontStyle=2" edge="1" parent="6ZPpjvBLr2ZM-foIgfbG-1" source="6ZPpjvBLr2ZM-foIgfbG-9" target="PijtJQCs1HvSi1f1vbHh-0">
          <mxGeometry relative="1" as="geometry">
            <mxPoint x="-425.4999999999999" y="349.9999999999999" as="targetPoint" />
          </mxGeometry>
        </mxCell>
        <mxCell id="6ZPpjvBLr2ZM-foIgfbG-9" value="&lt;b&gt;Wait&lt;/b&gt; for &lt;i&gt;condSend&lt;/i&gt;" style="rounded=0;whiteSpace=wrap;html=1;sketch=0;fontColor=#143642;strokeColor=#0F8B8D;fillColor=#FAE5C7;" vertex="1" parent="6ZPpjvBLr2ZM-foIgfbG-1">
          <mxGeometry x="-500" y="260" width="150" height="40" as="geometry" />
        </mxCell>
        <mxCell id="6ZPpjvBLr2ZM-foIgfbG-13" value="&lt;b&gt;Unlock&lt;/b&gt; &lt;i&gt;mutSend&lt;/i&gt;" style="rounded=0;whiteSpace=wrap;html=1;sketch=0;fontColor=#143642;strokeColor=#0F8B8D;fillColor=#FAE5C7;" vertex="1" parent="6ZPpjvBLr2ZM-foIgfbG-1">
          <mxGeometry x="-500.25" y="550" width="150" height="40" as="geometry" />
        </mxCell>
        <mxCell id="6ZPpjvBLr2ZM-foIgfbG-14" style="edgeStyle=orthogonalEdgeStyle;curved=0;rounded=1;sketch=0;orthogonalLoop=1;jettySize=auto;html=1;exitX=0.5;exitY=1;exitDx=0;exitDy=0;entryX=1;entryY=0.5;entryDx=0;entryDy=0;fontColor=#143642;strokeColor=#A8201A;fillColor=#FAE5C7;" edge="1" parent="6ZPpjvBLr2ZM-foIgfbG-1" source="6ZPpjvBLr2ZM-foIgfbG-13" target="6ZPpjvBLr2ZM-foIgfbG-5">
          <mxGeometry relative="1" as="geometry">
            <mxPoint x="-382.7500000000001" y="660" as="sourcePoint" />
            <Array as="points">
              <mxPoint x="-424" y="590" />
              <mxPoint x="-424" y="600" />
              <mxPoint x="-310" y="600" />
              <mxPoint x="-310" y="170" />
            </Array>
          </mxGeometry>
        </mxCell>
        <mxCell id="ZXO7GdbtIRG4TZ7W4dZn-3" style="edgeStyle=orthogonalEdgeStyle;rounded=1;sketch=0;orthogonalLoop=1;jettySize=auto;html=1;exitX=0.5;exitY=1;exitDx=0;exitDy=0;entryX=0.5;entryY=0;entryDx=0;entryDy=0;fontColor=#143642;strokeColor=#A8201A;fillColor=#FAE5C7;" edge="1" parent="6ZPpjvBLr2ZM-foIgfbG-1" source="PijtJQCs1HvSi1f1vbHh-0" target="PmDaLgrR-OTf5r7a0wcz-0">
          <mxGeometry relative="1" as="geometry" />
        </mxCell>
        <mxCell id="PijtJQCs1HvSi1f1vbHh-0" value="&lt;b&gt;Lock&lt;/b&gt; &lt;i&gt;mutComms&lt;/i&gt;" style="rounded=0;whiteSpace=wrap;html=1;sketch=0;fontColor=#143642;strokeColor=#0F8B8D;fillColor=#FAE5C7;" vertex="1" parent="6ZPpjvBLr2ZM-foIgfbG-1">
          <mxGeometry x="-500" y="350" width="150" height="40" as="geometry" />
        </mxCell>
        <mxCell id="ZXO7GdbtIRG4TZ7W4dZn-4" value="" style="edgeStyle=orthogonalEdgeStyle;rounded=1;sketch=0;orthogonalLoop=1;jettySize=auto;html=1;fontColor=#143642;strokeColor=#A8201A;fillColor=#FAE5C7;" edge="1" parent="6ZPpjvBLr2ZM-foIgfbG-1" source="PmDaLgrR-OTf5r7a0wcz-0" target="ZXO7GdbtIRG4TZ7W4dZn-0">
          <mxGeometry relative="1" as="geometry" />
        </mxCell>
        <mxCell id="PmDaLgrR-OTf5r7a0wcz-0" value="&lt;b&gt;LoraSend&lt;/b&gt;(&lt;i&gt;message&lt;/i&gt;)" style="shape=process;whiteSpace=wrap;html=1;backgroundOutline=1;rounded=0;sketch=0;fontColor=#143642;strokeColor=#0F8B8D;fillColor=#FAE5C7;" vertex="1" parent="6ZPpjvBLr2ZM-foIgfbG-1">
          <mxGeometry x="-500" y="410" width="150" height="40" as="geometry" />
        </mxCell>
        <mxCell id="ZXO7GdbtIRG4TZ7W4dZn-5" value="" style="edgeStyle=orthogonalEdgeStyle;rounded=1;sketch=0;orthogonalLoop=1;jettySize=auto;html=1;fontColor=#143642;strokeColor=#A8201A;fillColor=#FAE5C7;" edge="1" parent="6ZPpjvBLr2ZM-foIgfbG-1" source="ZXO7GdbtIRG4TZ7W4dZn-0" target="6ZPpjvBLr2ZM-foIgfbG-13">
          <mxGeometry relative="1" as="geometry" />
        </mxCell>
        <mxCell id="ZXO7GdbtIRG4TZ7W4dZn-0" value="&lt;b&gt;Unlock&lt;/b&gt; &lt;i&gt;mutComms&lt;/i&gt;" style="rounded=0;whiteSpace=wrap;html=1;sketch=0;fontColor=#143642;strokeColor=#0F8B8D;fillColor=#FAE5C7;" vertex="1" parent="6ZPpjvBLr2ZM-foIgfbG-1">
          <mxGeometry x="-500" y="470" width="150" height="40" as="geometry" />
        </mxCell>
      </root>
    </mxGraphModel>
  </diagram>
  <diagram name="tLoraRecv" id="0WbtY79F4Cu1o5Ce8Okv">
    <mxGraphModel dx="1781" dy="527" grid="1" gridSize="10" guides="1" tooltips="1" connect="1" arrows="1" fold="1" page="1" pageScale="1" pageWidth="850" pageHeight="1100" background="none" math="0" shadow="0">
      <root>
        <mxCell id="Pw5umfQ0hP8HBKfbfsgT-0" />
        <mxCell id="Pw5umfQ0hP8HBKfbfsgT-1" parent="Pw5umfQ0hP8HBKfbfsgT-0" />
        <mxCell id="Pw5umfQ0hP8HBKfbfsgT-2" style="edgeStyle=orthogonalEdgeStyle;curved=0;rounded=1;sketch=0;orthogonalLoop=1;jettySize=auto;html=1;exitX=0.5;exitY=1;exitDx=0;exitDy=0;entryX=0.5;entryY=0;entryDx=0;entryDy=0;fontColor=#143642;strokeColor=#A8201A;fillColor=#FAE5C7;" edge="1" parent="Pw5umfQ0hP8HBKfbfsgT-1" source="Pw5umfQ0hP8HBKfbfsgT-3" target="Pw5umfQ0hP8HBKfbfsgT-5">
          <mxGeometry relative="1" as="geometry" />
        </mxCell>
        <mxCell id="Pw5umfQ0hP8HBKfbfsgT-3" value="tLoraRecv" style="ellipse;whiteSpace=wrap;html=1;fillColor=#FAE5C7;strokeColor=#0F8B8D;fontColor=#143642;fontStyle=1" vertex="1" parent="Pw5umfQ0hP8HBKfbfsgT-1">
          <mxGeometry x="-488" y="70" width="125.5" height="50" as="geometry" />
        </mxCell>
        <mxCell id="Pw5umfQ0hP8HBKfbfsgT-4" style="edgeStyle=orthogonalEdgeStyle;curved=0;rounded=1;sketch=0;orthogonalLoop=1;jettySize=auto;html=1;exitX=0.5;exitY=1;exitDx=0;exitDy=0;entryX=0.5;entryY=0;entryDx=0;entryDy=0;fontColor=#143642;strokeColor=#A8201A;fillColor=#FAE5C7;" edge="1" parent="Pw5umfQ0hP8HBKfbfsgT-1" source="Pw5umfQ0hP8HBKfbfsgT-5" target="Pw5umfQ0hP8HBKfbfsgT-7">
          <mxGeometry relative="1" as="geometry" />
        </mxCell>
        <mxCell id="Pw5umfQ0hP8HBKfbfsgT-5" value="" style="ellipse;whiteSpace=wrap;html=1;aspect=fixed;rounded=0;sketch=0;fontColor=#143642;strokeColor=#0F8B8D;fillColor=#FAE5C7;" vertex="1" parent="Pw5umfQ0hP8HBKfbfsgT-1">
          <mxGeometry x="-435" y="160" width="20" height="20" as="geometry" />
        </mxCell>
        <mxCell id="Pw5umfQ0hP8HBKfbfsgT-6" value="" style="edgeStyle=orthogonalEdgeStyle;curved=0;rounded=1;sketch=0;orthogonalLoop=1;jettySize=auto;html=1;fontColor=#143642;strokeColor=#A8201A;fillColor=#FAE5C7;" edge="1" parent="Pw5umfQ0hP8HBKfbfsgT-1" source="Pw5umfQ0hP8HBKfbfsgT-7">
          <mxGeometry relative="1" as="geometry">
            <mxPoint x="-425" y="259.9999999999999" as="targetPoint" />
          </mxGeometry>
        </mxCell>
        <mxCell id="Pw5umfQ0hP8HBKfbfsgT-7" value="&lt;div&gt;&lt;b&gt;Lock&lt;/b&gt; &lt;i&gt;mutComms&lt;/i&gt;&lt;/div&gt;" style="rounded=0;whiteSpace=wrap;html=1;sketch=0;fontColor=#143642;strokeColor=#0F8B8D;fillColor=#FAE5C7;" vertex="1" parent="Pw5umfQ0hP8HBKfbfsgT-1">
          <mxGeometry x="-500" y="200" width="150" height="40" as="geometry" />
        </mxCell>
        <mxCell id="Pw5umfQ0hP8HBKfbfsgT-8" value="Returns &lt;i&gt;message&lt;/i&gt;" style="edgeStyle=orthogonalEdgeStyle;curved=0;rounded=1;sketch=0;orthogonalLoop=1;jettySize=auto;html=1;fontColor=#143642;strokeColor=#A8201A;fillColor=#FAE5C7;entryX=0.5;entryY=0;entryDx=0;entryDy=0;" edge="1" parent="Pw5umfQ0hP8HBKfbfsgT-1" target="Pw5umfQ0hP8HBKfbfsgT-13">
          <mxGeometry relative="1" as="geometry">
            <mxPoint x="-425" y="299.9999999999999" as="sourcePoint" />
            <mxPoint x="-425.4999999999999" y="349.9999999999999" as="targetPoint" />
          </mxGeometry>
        </mxCell>
        <mxCell id="4tTFrwctF4CoQ40aPv5f-1" style="edgeStyle=orthogonalEdgeStyle;rounded=1;sketch=0;orthogonalLoop=1;jettySize=auto;html=1;exitX=0.5;exitY=1;exitDx=0;exitDy=0;entryX=0;entryY=0.5;entryDx=0;entryDy=0;fontColor=#143642;strokeColor=#A8201A;fillColor=#FAE5C7;" edge="1" parent="Pw5umfQ0hP8HBKfbfsgT-1" source="Pw5umfQ0hP8HBKfbfsgT-10" target="Pw5umfQ0hP8HBKfbfsgT-5">
          <mxGeometry relative="1" as="geometry">
            <Array as="points">
              <mxPoint x="-425" y="690" />
              <mxPoint x="-570" y="690" />
              <mxPoint x="-570" y="170" />
            </Array>
          </mxGeometry>
        </mxCell>
        <mxCell id="Pw5umfQ0hP8HBKfbfsgT-10" value="&lt;b&gt;Execute&lt;/b&gt; &lt;i&gt;command&lt;/i&gt;" style="rounded=0;whiteSpace=wrap;html=1;sketch=0;fontColor=#143642;strokeColor=#0F8B8D;fillColor=#FAE5C7;" vertex="1" parent="Pw5umfQ0hP8HBKfbfsgT-1">
          <mxGeometry x="-500.25" y="630" width="150" height="40" as="geometry" />
        </mxCell>
        <mxCell id="Pw5umfQ0hP8HBKfbfsgT-11" style="edgeStyle=orthogonalEdgeStyle;curved=0;rounded=1;sketch=0;orthogonalLoop=1;jettySize=auto;html=1;exitX=1;exitY=0.5;exitDx=0;exitDy=0;entryX=1;entryY=0.5;entryDx=0;entryDy=0;fontColor=#143642;strokeColor=#A8201A;fillColor=#FAE5C7;" edge="1" parent="Pw5umfQ0hP8HBKfbfsgT-1" source="iNUouUhRTITk8NM0t00v-0" target="Pw5umfQ0hP8HBKfbfsgT-5">
          <mxGeometry relative="1" as="geometry">
            <mxPoint x="-382.7500000000001" y="660" as="sourcePoint" />
            <Array as="points">
              <mxPoint x="-310" y="455" />
              <mxPoint x="-310" y="170" />
            </Array>
          </mxGeometry>
        </mxCell>
        <mxCell id="VHwuukyjGVTCq5X11j34-1" value="No" style="edgeLabel;html=1;align=center;verticalAlign=middle;resizable=0;points=[];fontColor=#143642;" vertex="1" connectable="0" parent="Pw5umfQ0hP8HBKfbfsgT-11">
          <mxGeometry x="-0.9582" y="2" relative="1" as="geometry">
            <mxPoint as="offset" />
          </mxGeometry>
        </mxCell>
        <mxCell id="VHwuukyjGVTCq5X11j34-0" value="" style="edgeStyle=orthogonalEdgeStyle;rounded=1;sketch=0;orthogonalLoop=1;jettySize=auto;html=1;fontColor=#143642;strokeColor=#A8201A;fillColor=#FAE5C7;" edge="1" parent="Pw5umfQ0hP8HBKfbfsgT-1" source="Pw5umfQ0hP8HBKfbfsgT-13" target="iNUouUhRTITk8NM0t00v-0">
          <mxGeometry relative="1" as="geometry" />
        </mxCell>
        <mxCell id="Pw5umfQ0hP8HBKfbfsgT-13" value="&lt;b&gt;Unlock&lt;/b&gt; &lt;i&gt;mutComms&lt;/i&gt;" style="rounded=0;whiteSpace=wrap;html=1;sketch=0;fontColor=#143642;strokeColor=#0F8B8D;fillColor=#FAE5C7;" vertex="1" parent="Pw5umfQ0hP8HBKfbfsgT-1">
          <mxGeometry x="-500.25" y="350" width="150" height="40" as="geometry" />
        </mxCell>
        <mxCell id="Pw5umfQ0hP8HBKfbfsgT-15" value="&lt;b&gt;LoraReceive()&lt;/b&gt;" style="shape=process;whiteSpace=wrap;html=1;backgroundOutline=1;rounded=0;sketch=0;fontColor=#143642;strokeColor=#0F8B8D;fillColor=#FAE5C7;" vertex="1" parent="Pw5umfQ0hP8HBKfbfsgT-1">
          <mxGeometry x="-500" y="260" width="150" height="40" as="geometry" />
        </mxCell>
        <mxCell id="4tTFrwctF4CoQ40aPv5f-0" value="Returns &lt;i&gt;command&lt;/i&gt;" style="edgeStyle=orthogonalEdgeStyle;rounded=1;sketch=0;orthogonalLoop=1;jettySize=auto;html=1;fontColor=#143642;strokeColor=#A8201A;fillColor=#FAE5C7;" edge="1" parent="Pw5umfQ0hP8HBKfbfsgT-1" source="Pw5umfQ0hP8HBKfbfsgT-19" target="Pw5umfQ0hP8HBKfbfsgT-10">
          <mxGeometry relative="1" as="geometry" />
        </mxCell>
        <mxCell id="Pw5umfQ0hP8HBKfbfsgT-19" value="&lt;b&gt;parse&lt;/b&gt;(&lt;i&gt;message&lt;/i&gt;)" style="shape=process;whiteSpace=wrap;html=1;backgroundOutline=1;rounded=0;sketch=0;fontColor=#143642;strokeColor=#0F8B8D;fillColor=#FAE5C7;" vertex="1" parent="Pw5umfQ0hP8HBKfbfsgT-1">
          <mxGeometry x="-500.25" y="540" width="150" height="40" as="geometry" />
        </mxCell>
        <mxCell id="HGYTzw5tQV76-3NAWnD_-0" style="edgeStyle=orthogonalEdgeStyle;sketch=0;orthogonalLoop=1;jettySize=auto;html=1;exitX=0;exitY=0.5;exitDx=0;exitDy=0;entryX=0.5;entryY=0;entryDx=0;entryDy=0;fontColor=#143642;strokeColor=#A8201A;fillColor=#FAE5C7;rounded=1;" edge="1" parent="Pw5umfQ0hP8HBKfbfsgT-1" source="iNUouUhRTITk8NM0t00v-0" target="Pw5umfQ0hP8HBKfbfsgT-19">
          <mxGeometry relative="1" as="geometry">
            <Array as="points">
              <mxPoint x="-520" y="455" />
              <mxPoint x="-520" y="520" />
              <mxPoint x="-425" y="520" />
            </Array>
          </mxGeometry>
        </mxCell>
        <mxCell id="VHwuukyjGVTCq5X11j34-2" value="Yes" style="edgeLabel;html=1;align=center;verticalAlign=middle;resizable=0;points=[];fontColor=#143642;" vertex="1" connectable="0" parent="HGYTzw5tQV76-3NAWnD_-0">
          <mxGeometry x="-0.9088" y="-1" relative="1" as="geometry">
            <mxPoint as="offset" />
          </mxGeometry>
        </mxCell>
        <mxCell id="iNUouUhRTITk8NM0t00v-0" value="&lt;div&gt;&lt;i&gt;message&lt;/i&gt; was&lt;/div&gt;&lt;div&gt;received?&lt;br&gt;&lt;/div&gt;" style="rhombus;whiteSpace=wrap;html=1;rounded=0;sketch=0;fontColor=#143642;strokeColor=#0F8B8D;fillColor=#FAE5C7;" vertex="1" parent="Pw5umfQ0hP8HBKfbfsgT-1">
          <mxGeometry x="-474.25" y="410" width="98" height="90" as="geometry" />
        </mxCell>
      </root>
    </mxGraphModel>
  </diagram>
</mxfile>
